<?xml version="1.0" encoding="UTF-8" standalone="no"?>
<svg
   xmlns:dc="http://purl.org/dc/elements/1.1/"
   xmlns:cc="http://creativecommons.org/ns#"
   xmlns:rdf="http://www.w3.org/1999/02/22-rdf-syntax-ns#"
   xmlns:svg="http://www.w3.org/2000/svg"
   xmlns="http://www.w3.org/2000/svg"
   xmlns:sodipodi="http://sodipodi.sourceforge.net/DTD/sodipodi-0.dtd"
   xmlns:inkscape="http://www.inkscape.org/namespaces/inkscape"
   height="400"
   version="1.0"
   viewBox="0 0 1024 399.99999"
   width="1024"
   xml:space="preserve"
   id="svg1154"
   sodipodi:docname="banner.svg"
   inkscape:version="0.92.4 5da689c313, 2019-01-14"><metadata
     id="metadata1160"><rdf:RDF><cc:Work
         rdf:about=""><dc:format>image/svg+xml</dc:format><dc:type
           rdf:resource="http://purl.org/dc/dcmitype/StillImage" /><dc:title></dc:title></cc:Work></rdf:RDF></metadata><defs
     id="defs1158"><style
       id="style1307">.cls-1,.cls-3{fill:none;stroke-linecap:round;stroke-linejoin:round;}.cls-1,.cls-2,.cls-3,.cls-5{stroke:#000;}.cls-1,.cls-2,.cls-5{stroke-width:4px;}.cls-2{fill:#0a1a5b;}.cls-2,.cls-5{stroke-miterlimit:10;}.cls-3{stroke-width:3px;}.cls-4{fill:#fff;}.cls-5{fill:#08b552;}</style></defs><sodipodi:namedview
     pagecolor="#ffffff"
     bordercolor="#666666"
     borderopacity="1"
     objecttolerance="10"
     gridtolerance="10"
     guidetolerance="10"
     inkscape:pageopacity="0"
     inkscape:pageshadow="2"
     inkscape:window-width="1918"
     inkscape:window-height="1059"
     id="namedview1156"
     showgrid="false"
     inkscape:zoom="0.69746442"
     inkscape:cx="330.19418"
     inkscape:cy="76.47144"
     inkscape:window-x="0"
     inkscape:window-y="0"
     inkscape:window-maximized="0"
     inkscape:current-layer="svg1154"
     units="px" /><g
     id="g1369"
     transform="matrix(2.6190364,0,0,2.6190364,19.91181,-711.86469)"><path
       id="path1313"
       d="m 74.217497,325.95574 c 0,0 -7.27,-34.34 6.97,-47.78"
       class="cls-1"
       inkscape:connector-curvature="0"
       style="fill:none;stroke:#000000;stroke-width:4px;stroke-linecap:round;stroke-linejoin:round" /><path
       id="path1315"
       d="m 115.0175,371.41574 c -1.08,25.3 -26.230003,49.09 -54.880003,46.58 -27.6,-2.42 -45.73,-22.73 -45.73,-53.36 0,-30.63 11.82,-65.38 56.66,-47.46 35.740003,-7.63 45.080003,27.7 43.950003,54.24 z"
       class="cls-2"
       inkscape:connector-curvature="0"
       style="fill:#3b1c4a;fill-opacity:1;stroke:#000000;stroke-width:4px;stroke-miterlimit:10" /><path
       id="path1317"
       d="m 70.757497,317.95574 c 25,16.05 24,70.52 0,92.22"
       class="cls-3"
       inkscape:connector-curvature="0"
       style="fill:none;stroke:#000000;stroke-width:3px;stroke-linecap:round;stroke-linejoin:round" /><path
       id="path1319"
       d="m 28.447497,332.67574 c 6.49,-9.6 17.46,-15.5 19.98,-11.5 2.52,4 -4,7.16 -11.71,20.45 -7.71,13.29 -6.1,20.2 -10.27,20.43 -4.17,0.23 -5.69,-17.94 2,-29.38 z"
       class="cls-4"
       inkscape:connector-curvature="0"
       style="fill:#ffffff" /><path
       id="path1321"
       d="m 28.447497,332.67574 c 6.49,-9.6 17.46,-15.5 19.98,-11.5 2.52,4 -4,7.16 -11.71,20.45 -7.71,13.29 -6.1,20.2 -10.27,20.43 -4.17,0.23 -5.69,-17.94 2,-29.38 z"
       class="cls-4"
       inkscape:connector-curvature="0"
       style="fill:#ffffff" /><path
       id="_Path_"
       data-name="&lt;Path&gt;"
       d="m 73.757497,305.23574 c 7,-20.85 25.29,-15.3 40.000003,-4.27 -14.000003,11.45 -21.400003,-3.3 -40.000003,4.27 z"
       class="cls-5"
       inkscape:connector-curvature="0"
       style="fill:#50a167;fill-opacity:1;stroke:#000000;stroke-width:4px;stroke-miterlimit:10" /></g><text
     xml:space="preserve"
     style="font-style:normal;font-variant:normal;font-weight:bold;font-stretch:normal;font-size:219.44700623px;line-height:1.25;font-family:'Open Sans';-inkscape-font-specification:'Open Sans, Bold';font-variant-ligatures:normal;font-variant-caps:normal;font-variant-numeric:normal;font-feature-settings:normal;text-align:start;letter-spacing:0px;word-spacing:0px;writing-mode:lr-tb;text-anchor:start;fill:#3b1c4a;fill-opacity:1;stroke:none;stroke-width:5.48617506"
     x="393.63046"
     y="242.05194"
     id="text1373"><tspan
       sodipodi:role="line"
       id="tspan1371"
       x="393.63046"
       y="242.05194"
       style="font-style:normal;font-variant:normal;font-weight:bold;font-stretch:normal;font-size:219.44700623px;font-family:'Open Sans';-inkscape-font-specification:'Open Sans, Bold';font-variant-ligatures:normal;font-variant-caps:normal;font-variant-numeric:normal;font-feature-settings:normal;text-align:start;writing-mode:lr-tb;text-anchor:start;fill:#3b1c4a;fill-opacity:1;stroke-width:5.48617506">plum</tspan></text>
<text
     xml:space="preserve"
     style="font-style:normal;font-variant:normal;font-weight:bold;font-stretch:normal;font-size:26.95128632px;line-height:1.25;font-family:'Open Sans';-inkscape-font-specification:'Open Sans, Bold';font-variant-ligatures:normal;font-variant-caps:normal;font-variant-numeric:normal;font-feature-settings:normal;text-align:start;letter-spacing:0px;word-spacing:0px;writing-mode:lr-tb;text-anchor:start;fill:#000000;fill-opacity:1;stroke:none;stroke-width:0.67378211"
     x="467.31976"
     y="288.29617"
     id="text1373-1"><tspan
       sodipodi:role="line"
       id="tspan1371-1"
       x="467.31976"
       y="288.29617"
       style="font-style:normal;font-variant:normal;font-weight:normal;font-stretch:normal;font-size:26.95065308px;font-family:'Open Sans';-inkscape-font-specification:'Open Sans, Normal';font-variant-ligatures:normal;font-variant-caps:normal;font-variant-numeric:normal;font-feature-settings:normal;text-align:start;writing-mode:lr-tb;text-anchor:start;stroke-width:0.67378211">A <tspan
   style="font-weight:bold;stroke-width:0.67378211"
   id="tspan1395">plu</tspan>gin <tspan
   style="font-weight:bold;stroke-width:0.67378211"
   id="tspan1397">m</tspan>arketplace for Python apps</tspan></text>
<g
     id="g1889"
     transform="translate(217.77924)"><g
       id="layer1"
       transform="matrix(0.30942144,0,0,0.30942144,560.51879,134.13823)"><path
         inkscape:connector-curvature="0"
         style="color:#000000;display:inline;overflow:visible;visibility:visible;fill:#3b1c4a;fill-opacity:1;fill-rule:nonzero;stroke:none;marker:none;enable-background:accumulate"
         d="m 20,20 v 34.09375 c 11.43679,0 20.71875,9.28196 20.71875,20.71875 C 40.71875,86.24928 31.43679,95.5 20,95.5 v 34.09375 h 146.6875 v -9.5 h 3 v 9.5 H 274.15625 V 95.5 c -0.0105,2e-5 -0.0208,0 -0.0312,0 -11.43678,0 -20.71875,-9.25072 -20.71875,-20.6875 0,-11.43679 9.28197,-20.71875 20.71875,-20.71875 0.0105,0 0.0208,-2e-5 0.0312,0 V 20 H 169.6875 v 9.09375 h -3 V 20 Z m 146.6875,16.09375 h 3 v 14 h -3 z m 41.44141,12.833984 c 2.79067,0 5.02343,1.92774 5.02343,4.3125 0,2.38476 -2.23276,4.363282 -5.02343,4.363282 -2.73994,0 -4.97266,-1.978522 -4.97266,-4.363282 0,-2.38476 2.23272,-4.3125 4.97266,-4.3125 z m -13.22852,4.210938 v 8.017578 h 3.95899 v 6.291016 h -3.95899 v 12.279296 c 0,2.02959 0.71015,2.791016 2.13086,2.791016 0.71035,0 1.06703,-0.10181 1.82813,-0.40625 v 5.935547 c -0.71036,0.40591 -2.38661,0.964844 -4.61915,0.964844 -6.13949,0 -8.98046,-3.753876 -8.98046,-8.472657 V 67.447266 h -2.8418 V 61.15625 h 2.8418 V 55.574219 Z M 166.6875,57.09375 h 3 v 14 h -3 z m -74.568359,3.554688 c 8.473509,0 14.207029,4.515688 14.207029,14.105468 0,8.62573 -5.02336,14.105469 -12.07617,14.105469 -1.72514,0 -3.147072,-0.20329 -3.857422,-0.40625 V 99.414062 H 80.751953 V 62.728516 c 2.58772,-1.21775 6.090268,-2.080081 11.367188,-2.080078 z m 49.863279,0 c 8.57499,0 12.63436,5.935363 12.12696,15.220703 l -15.93165,2.234375 c 0.60888,2.94289 2.18061,4.414062 5.68165,4.414062 3.24732,0 5.78445,-0.711556 7.30664,-1.472656 l 2.13086,5.886719 c -2.38476,1.16701 -5.58034,2.080078 -10.6543,2.080078 -8.93017,0 -13.64844,-6.037993 -13.64844,-14.257813 0,-8.21981 4.41329,-14.105468 12.98828,-14.105468 z m -17.92187,0.0059 c 0.8928,0.01358 1.82795,0.04496 2.80468,0.0957 l -1.67578,6.697266 c -1.77589,-0.86257 -3.50104,-0.913692 -4.76953,-0.457032 v 21.513672 h -9.64062 v -25.77539 c 2.79702,-1.376314 7.03166,-2.16926 13.28125,-2.074219 z m 79.24804,0.501953 h 9.64063 v 27.347656 h -9.64063 z m 13.23438,0 h 10.04687 l 3.29883,6.849609 h 0.10156 l 3.60157,-6.849609 h 8.98047 l -7.96485,12.632812 8.72656,14.714844 H 232.67969 L 229.17773,80.9434 h -0.10156 l -3.65234,7.560547 h -9.74219 l 8.57422,-14.105468 z m -74.9668,5.023438 c -2.84142,0 -4.41381,2.585948 -4.10937,7.355468 l 7.76367,-1.166015 c 0,-4.16064 -1.2188,-6.189454 -3.6543,-6.189453 z m -49.507811,0.09961 c -0.71035,0 -1.219131,0.101686 -1.675781,0.253906 v 16.439453 c 0.35517,0.15221 0.863828,0.253906 1.523438,0.253906 3.4503,0 4.871093,-2.840514 4.871093,-8.421874 0,-5.733571 -1.21772,-8.525391 -4.71875,-8.525391 z M 166.6875,78.093792 h 3 v 14 h -3 z m 0,21 h 3 v 13.999998 h -3 z"
         transform="translate(257.78125,548.75)"
         id="rect3888" /></g><text
       id="text1373-1-3"
       y="334.07785"
       x="416.1315"
       style="font-style:normal;font-variant:normal;font-weight:bold;font-stretch:normal;font-size:26.95128632px;line-height:1.25;font-family:'Open Sans';-inkscape-font-specification:'Open Sans, Bold';font-variant-ligatures:normal;font-variant-caps:normal;font-variant-numeric:normal;font-feature-settings:normal;text-align:start;letter-spacing:0px;word-spacing:0px;writing-mode:lr-tb;text-anchor:start;fill:#000000;fill-opacity:1;stroke:none;stroke-width:0.67378211"
       xml:space="preserve"><tspan
         style="font-style:normal;font-variant:normal;font-weight:normal;font-stretch:normal;font-size:26.95065308px;font-family:'Open Sans';-inkscape-font-specification:'Open Sans, Normal';font-variant-ligatures:normal;font-variant-caps:normal;font-variant-numeric:normal;font-feature-settings:normal;text-align:start;writing-mode:lr-tb;text-anchor:start;stroke-width:0.67378211"
         y="334.07785"
         x="416.1315"
         id="tspan1371-1-5"
         sodipodi:role="line">brought to you by </tspan></text>
</g></svg>